<svg width="11" height="7" viewBox="0 0 11 7" fill="none" xmlns="http://www.w3.org/2000/svg">
<path d="M10.8953 3.72932C11.0349 3.61877 11.0349 3.38135 10.8953 3.27081L6.84048 0.0624358C6.7533 -0.00669007 6.63484 -0.0195235 6.53492 0.0294771C6.435 0.0784777 6.37186 0.179979 6.37186 0.291689L6.37186 2.91672L0.28963 2.91672C0.129754 2.91672 -1.33206e-07 3.04739 -1.40243e-07 3.20839L-1.65742e-07 3.79173C-1.7278e-07 3.95274 0.129754 4.0834 0.28963 4.0834L6.37186 4.0834L6.37186 6.70844C6.37186 6.82015 6.43529 6.92194 6.53492 6.97065C6.63455 7.01936 6.7533 7.00682 6.84048 6.93769L10.8953 3.72932Z" fill="white"/>
</svg>
