<svg width="120" height="20" viewBox="0 0 120 20" fill="none" xmlns="http://www.w3.org/2000/svg">
<path d="M11.874 10.3318C12.8285 10.4081 13.6303 10.7899 14.3175 11.5154C15.0048 12.2408 15.3484 13.2335 15.3484 14.4934C15.3484 16.0206 14.8521 17.2806 13.8212 18.1969C12.7903 19.1132 11.3395 19.5714 9.3923 19.5714H0V1.474H9.35412C10.9959 1.474 12.3322 1.93216 13.3248 2.8103C14.3175 3.72662 14.8139 4.91021 14.8139 6.39923C14.8139 7.54463 14.5084 8.42277 13.8594 9.11001C13.2103 9.79726 12.5612 10.1409 11.8358 10.2172L11.874 10.3318ZM4.46707 8.95729H8.36144C9.0105 8.95729 9.54502 8.76639 9.965 8.38459C10.3468 8.00279 10.5759 7.54463 10.5759 6.89557C10.5759 6.32287 10.385 5.90289 10.0032 5.55927C9.62138 5.21565 9.12504 5.06293 8.55234 5.06293H4.46707V8.95729ZM8.59052 15.9824C9.27776 15.9824 9.85046 15.7915 10.2323 15.4479C10.6141 15.1043 10.805 14.6079 10.805 13.9589C10.805 13.348 10.6141 12.8898 10.1941 12.5462C9.81228 12.2026 9.27776 12.0117 8.66688 12.0117H4.46707V15.9824H8.59052ZM30.8113 19.5714H26.497V18.2732C25.4279 19.4186 24.0153 19.9913 22.3353 19.9913C20.7318 19.9913 19.4718 19.4568 18.5173 18.426C17.5628 17.3951 17.0665 16.0206 17.0665 14.3407V6.01743H21.3427V13.4244C21.3427 14.2261 21.5717 14.8752 21.9917 15.3715C22.4117 15.8679 22.9844 16.097 23.6717 16.097C24.5498 16.097 25.237 15.7915 25.7334 15.1806C26.2297 14.5698 26.4588 13.6153 26.4588 12.3171V6.01743H30.7731L30.8113 19.5714ZM44.1362 19.5714H32.6822V18.7696L38.0655 9.45364H32.8349V6.01743H44.0598V6.81921L38.6764 16.1352H44.098V19.5714H44.1362ZM57.4228 19.5714H46.007V18.7696L51.3522 9.45364H46.1215V6.01743H57.3465V6.81921L51.9631 16.1352H57.3847L57.4228 19.5714ZM63.8371 9.22456H71.664V13.1189H63.8371V19.6095H59.37V1.474H72.3513V5.36837H63.8371V9.22456ZM103.315 13.9207H93.3885C93.6557 15.6006 94.9157 16.5551 96.7865 16.5551C98.2755 16.5551 99.7645 15.9824 100.872 15.1043L102.514 17.9678C100.986 19.2659 99.0391 19.9913 96.7865 19.9913C92.2431 19.9913 89.1505 17.2424 89.1505 12.8135C89.1505 10.7136 89.8377 8.99547 91.2122 7.65917C92.5867 6.32287 94.3048 5.63563 96.3284 5.63563C98.2755 5.63563 99.9173 6.28469 101.254 7.62099C102.59 8.95729 103.277 10.6754 103.315 12.8517V13.9207ZM94.5721 9.68272C94.0375 10.0645 93.6557 10.599 93.4648 11.2481H99.0391C98.8482 10.5609 98.5046 10.0263 98.0083 9.64454C97.5119 9.30091 96.9392 9.11001 96.3284 9.11001C95.6793 9.11001 95.1066 9.30091 94.5721 9.68272ZM87.5088 13.9207H77.5819C77.8492 15.6006 79.1091 16.5551 80.98 16.5551C82.469 16.5551 83.958 15.9824 85.0652 15.1043L86.707 17.9678C85.1798 19.2659 83.2326 19.9913 80.98 19.9913C76.4365 19.9913 73.3439 17.2424 73.3439 12.8135C73.3439 10.7136 74.0312 8.99547 75.4057 7.65917C76.7801 6.32287 78.4983 5.63563 80.5218 5.63563C82.469 5.63563 84.1107 6.28469 85.447 7.62099C86.7833 8.95729 87.4706 10.6754 87.5088 12.8517V13.9207ZM78.7655 9.68272C78.231 10.0645 77.8492 10.599 77.6583 11.2481H83.2326C83.0417 10.5609 82.6981 10.0263 82.2017 9.64454C81.7054 9.30091 81.1327 9.11001 80.5218 9.11001C79.8727 9.11001 79.3 9.30091 78.7655 9.68272ZM120 19.5714H115.686V18.5023C114.578 19.495 113.204 19.9913 111.486 19.9913C109.653 19.9913 108.088 19.3041 106.79 17.9678C105.492 16.6315 104.842 14.9134 104.842 12.8135C104.842 10.7136 105.492 8.99547 106.79 7.65917C108.088 6.32287 109.653 5.63563 111.486 5.63563C113.204 5.63563 114.617 6.13197 115.686 7.12465V0.137695H120V19.5714ZM114.731 15.3334C115.38 14.6843 115.724 13.8443 115.724 12.8135C115.724 11.8208 115.38 10.9808 114.731 10.2936C114.082 9.64454 113.28 9.30091 112.402 9.30091C111.448 9.30091 110.684 9.64454 110.073 10.2936C109.462 10.9427 109.157 11.7826 109.157 12.8135C109.157 13.8443 109.462 14.7225 110.073 15.3715C110.684 16.0206 111.448 16.3261 112.402 16.3261C113.28 16.3261 114.044 15.9824 114.731 15.3334Z" fill="#18A7B9"/>
</svg>
