<svg width="138" height="26" viewBox="0 0 138 26" fill="none" xmlns="http://www.w3.org/2000/svg">
<path d="M120.642 0.33374C120.145 0.33374 119.743 0.736152 119.743 1.23236V7.53486H136.391L128.809 0.334322L120.642 0.33374Z" fill="#18A7B9"/>
<path d="M137.001 9.44077C137.001 8.9434 136.602 8.54272 136.102 8.54272H129.801V25.1915L136.998 17.6065L137.001 9.44077Z" fill="#18A7B9"/>
<path d="M127.891 25.7952C128.386 25.7952 128.789 25.3923 128.789 24.8949V18.5947H112.14L119.723 25.7941L127.891 25.7952Z" fill="#18A7B9"/>
<path d="M111.532 16.6881C111.532 17.1849 111.934 17.5896 112.432 17.5896H118.732V0.939697L111.533 8.52237L111.532 16.6881Z" fill="#18A7B9"/>
<path d="M35.2228 3.37286V11.0615H24.5112V3.37286L20.6099 3.36938V22.7557H24.5112V14.4273H35.2228V22.7557H39.1306V3.37286H35.2228Z" fill="#18A7B9"/>
<path d="M87.125 3.3728V22.751H104.241L102.073 19.3395H91.0374V14.4272H101.724V11.1413H91.0374V6.70441H102.055L104.178 3.3728H87.125Z" fill="#18A7B9"/>
<path d="M6.10796 3.36816C2.04971 3.36816 0 5.83531 0 9.42516V16.6616C0 20.816 2.64143 22.7556 6.08769 22.7556L18.3279 22.7545L16.0588 19.211H6.84387C4.88624 19.211 4.03337 18.5034 4.03337 16.3124V9.74709C4.03337 7.62908 4.75134 6.80284 6.89598 6.80284H16.1549L18.3337 3.36816H6.10796Z" fill="#18A7B9"/>
<path d="M70.0017 3.36376C67.6579 3.36376 65.2556 4.77249 65.2556 8.39592V9.32695C65.2556 13.1044 67.567 14.5455 69.8795 14.5554H77.9966C78.8397 14.5554 79.5246 14.6955 79.5246 16.1204L79.5235 17.7666C79.502 19.0467 78.8634 19.3397 77.9677 19.3397H67.2891L65.1016 22.7512H78.219C81.3821 22.7512 83.5296 21.1775 83.5296 17.5425V16.2067C83.5296 12.6921 81.5344 11.0315 78.4407 11.0315H70.6901C69.8309 11.0315 69.2322 10.797 69.2322 9.52439V8.18399C69.2322 7.10009 69.6427 6.70463 70.6438 6.70463L80.8135 6.70058L82.939 3.35913L70.0017 3.36376Z" fill="#18A7B9"/>
<path d="M50.4652 3.37329L41.2734 22.755H45.6177L47.408 18.7523H57.3965L59.181 22.755H63.5444L54.3312 3.37329H50.4652ZM52.3927 7.39739L55.9246 15.4531H48.8833L52.3927 7.39739Z" fill="#18A7B9"/>
</svg>
