<svg width="122" height="25" viewBox="0 0 122 25" fill="none" xmlns="http://www.w3.org/2000/svg">
<path fill-rule="evenodd" clip-rule="evenodd" d="M18.7041 5.69112C18.7041 8.81997 16.166 11.3565 13.0351 11.3565C9.90401 11.3565 7.36596 8.81997 7.36596 5.69112C7.36596 2.56289 9.90401 0.0263672 13.0351 0.0263672C16.166 0.0263672 18.7041 2.56289 18.7041 5.69112ZM5.6706 12.7729C2.53964 12.7729 0.00146484 15.3086 0.00146484 18.4375C0.00146484 21.5661 2.53964 24.1024 5.6706 24.1024C8.80168 24.1024 11.34 21.5661 11.34 18.4375C11.34 15.3086 8.80168 12.7729 5.6706 12.7729ZM20.3995 12.7724C17.2685 12.7724 14.7303 15.3086 14.7303 18.4375C14.7303 21.5661 17.2685 24.1024 20.3995 24.1024C23.5304 24.1024 26.0686 21.5661 26.0686 18.4375C26.0686 15.3086 23.5304 12.7724 20.3995 12.7724Z" fill="#18A7B9"/>
<path fill-rule="evenodd" clip-rule="evenodd" d="M46.0152 18.3723C46.0891 19.2127 46.7618 20.2824 47.9272 20.2824H48.6092C48.8735 20.2824 49.0901 20.0659 49.0901 19.8015V4.81562H49.0872C49.0734 4.56316 48.8647 4.36096 48.6092 4.36096H46.4962C46.2406 4.36096 46.0319 4.56316 46.0177 4.81562H46.0152V6.03332C44.7205 4.43872 42.6794 3.77686 40.6326 3.77686C35.9801 3.77686 32.2085 7.5485 32.2085 12.2013C32.2085 16.8544 35.9801 20.6262 40.6326 20.6262V20.6266C42.6794 20.6266 44.9101 19.8325 46.0149 18.3704L46.0152 18.3723ZM40.6409 17.6777C37.6819 17.6777 35.2831 15.2261 35.2831 12.2013C35.2831 9.17712 37.6819 6.72536 40.6409 6.72536C43.5997 6.72536 45.9983 9.17712 45.9983 12.2013C45.9983 15.2261 43.5997 17.6777 40.6409 17.6777Z" fill="#18A7B9"/>
<path fill-rule="evenodd" clip-rule="evenodd" d="M80.441 18.3718C80.5149 19.2122 81.1876 20.2819 82.353 20.2819H83.0349C83.2993 20.2819 83.5157 20.0654 83.5157 19.8011V4.81514H83.513C83.4992 4.56267 83.2902 4.36047 83.0349 4.36047H80.9219C80.6664 4.36047 80.4577 4.56267 80.4434 4.81514H80.441V6.03283C79.1462 4.43823 77.1051 3.77637 75.0582 3.77637C70.4057 3.77637 66.6343 7.54801 66.6343 12.2009C66.6343 16.854 70.4057 20.6257 75.0582 20.6257V20.6261C77.1051 20.6261 79.3359 19.832 80.4407 18.3699L80.441 18.3718ZM75.0664 17.6772C72.1077 17.6772 69.7087 15.2256 69.7087 12.2009C69.7087 9.17664 72.1077 6.72488 75.0664 6.72488C78.0255 6.72488 80.4239 9.17664 80.4239 12.2009C80.4239 15.2256 78.0255 17.6772 75.0664 17.6772Z" fill="#18A7B9"/>
<path fill-rule="evenodd" clip-rule="evenodd" d="M118.925 18.3718C118.999 19.2122 119.671 20.2819 120.837 20.2819H121.519C121.783 20.2819 122 20.0654 122 19.8011V4.81514H121.997C121.983 4.56267 121.774 4.36047 121.519 4.36047H119.406C119.15 4.36047 118.942 4.56267 118.928 4.81514H118.925V6.03283C117.63 4.43823 115.589 3.77637 113.542 3.77637C108.89 3.77637 105.118 7.54801 105.118 12.2009C105.118 16.854 108.89 20.6257 113.542 20.6257V20.6261C115.589 20.6261 117.82 19.832 118.925 18.3699L118.925 18.3718ZM113.551 17.6772C110.592 17.6772 108.193 15.2256 108.193 12.2009C108.193 9.17664 110.592 6.72488 113.551 6.72488C116.509 6.72488 118.908 9.17664 118.908 12.2009C118.908 15.2256 116.509 17.6772 113.551 17.6772Z" fill="#18A7B9"/>
<path fill-rule="evenodd" clip-rule="evenodd" d="M102.445 18.8882L102.444 11.1336C102.444 6.76237 99.687 3.81348 95.2897 3.81348C93.1905 3.81348 91.4698 5.02734 90.862 6.07007C90.7307 5.25473 90.2978 4.3977 88.9555 4.3977H88.2713C88.0067 4.3977 87.7905 4.61436 87.7905 4.87872V18.4103V18.4124V19.8659H87.7932C87.807 20.118 88.016 20.3205 88.2715 20.3205H90.3845C90.4169 20.3205 90.4486 20.3166 90.4793 20.3106C90.4932 20.3079 90.5063 20.3024 90.5198 20.2986C90.5355 20.2937 90.5519 20.29 90.5669 20.2839C90.5857 20.2761 90.6027 20.2656 90.6202 20.2559C90.6288 20.2506 90.6377 20.2469 90.646 20.2414C90.6671 20.2279 90.6865 20.2115 90.7051 20.1947C90.7082 20.1917 90.7119 20.1896 90.715 20.1868C90.7359 20.1665 90.7551 20.1441 90.7721 20.1208C90.8251 20.0482 90.8573 19.9603 90.8626 19.8659H90.8652V11.0134C90.8652 8.66571 92.7686 6.76237 95.1164 6.76237C97.4641 6.76237 99.3675 8.66571 99.3675 11.0134L99.3694 18.4129L99.3699 18.4103C99.3699 18.4169 99.3709 18.4236 99.3709 18.4307V19.8659H99.3737C99.3877 20.118 99.5964 20.3205 99.8519 20.3205H101.965C101.998 20.3205 102.029 20.3166 102.06 20.3106C102.072 20.3083 102.084 20.3033 102.096 20.2999C102.113 20.2949 102.131 20.2905 102.148 20.2839C102.165 20.2767 102.181 20.2668 102.197 20.2575C102.207 20.2519 102.217 20.2478 102.227 20.2414C102.246 20.2286 102.264 20.2132 102.282 20.1978C102.286 20.1937 102.291 20.1907 102.296 20.1864C102.316 20.1671 102.333 20.1463 102.35 20.1244C102.351 20.1227 102.352 20.1215 102.354 20.1198C102.406 20.0478 102.437 19.961 102.443 19.8672L102.443 19.8659H102.446L102.445 18.8882Z" fill="#18A7B9"/>
<path fill-rule="evenodd" clip-rule="evenodd" d="M54.137 16.2257C55.5477 17.203 57.0873 17.6776 58.567 17.6776C59.9766 17.6776 61.4339 16.9468 61.4339 15.6749C61.4339 13.9767 58.2584 13.7125 56.2633 13.0344C54.2679 12.3563 52.5492 10.9545 52.5492 8.68449C52.5492 5.21097 55.6441 3.77637 58.5327 3.77637C60.363 3.77637 62.2514 4.37991 63.4756 5.24448C63.8973 5.56397 63.6405 5.93077 63.6405 5.93077L62.4718 7.59994C62.3405 7.78795 62.1108 7.95037 61.7811 7.74689C61.4514 7.54354 60.295 6.725 58.5327 6.725C56.7703 6.725 55.7087 7.53893 55.7087 8.54777C55.7087 9.75754 57.0885 10.138 58.7046 10.5504C61.521 11.3096 64.5933 12.2221 64.5933 15.6749C64.5933 18.7353 61.7307 20.6266 58.567 20.6266C56.1695 20.6266 54.1282 19.9432 52.4163 18.6868C52.0596 18.3299 52.3087 17.9985 52.3087 17.9985L53.4716 16.3378C53.7082 16.0272 54.0066 16.1356 54.137 16.2257Z" fill="#18A7B9"/>
</svg>
