<svg width="14" height="14" viewBox="0 0 14 14" fill="none" xmlns="http://www.w3.org/2000/svg">
  <circle cx="7" cy="7" r="7" fill="#F0BB00"/>
  <path d="M6 10.0006C6 9.86938 6.02587 9.73943 6.07612 9.61818C6.12638 9.49693 6.20003 9.38676 6.29289 9.29396C6.38575 9.20116 6.49599 9.12755 6.61732 9.07732C6.73864 9.0271 6.86868 9.00125 7 9.00125C7.13132 9.00125 7.26136 9.0271 7.38268 9.07732C7.50401 9.12755 7.61425 9.20116 7.70711 9.29396C7.79997 9.38676 7.87362 9.49693 7.92388 9.61818C7.97413 9.73943 8 9.86938 8 10.0006C8 10.2657 7.89464 10.5199 7.70711 10.7073C7.51957 10.8947 7.26522 11 7 11C6.73478 11 6.48043 10.8947 6.29289 10.7073C6.10536 10.5199 6 10.2657 6 10.0006V10.0006ZM6.098 3.99938C6.08468 3.8733 6.09804 3.74583 6.1372 3.62524C6.17636 3.50465 6.24045 3.39364 6.32532 3.2994C6.41018 3.20516 6.51392 3.12981 6.62981 3.07823C6.7457 3.02665 6.87114 3 6.998 3C7.12486 3 7.2503 3.02665 7.36619 3.07823C7.48208 3.12981 7.58582 3.20516 7.67068 3.2994C7.75555 3.39364 7.81964 3.50465 7.8588 3.62524C7.89796 3.74583 7.91132 3.8733 7.898 3.99938L7.548 7.50418C7.53624 7.64187 7.4732 7.77013 7.37136 7.8636C7.26951 7.95706 7.13627 8.00892 6.998 8.00892C6.85973 8.00892 6.72649 7.95706 6.62464 7.8636C6.5228 7.77013 6.45976 7.64187 6.448 7.50418L6.098 3.99938Z" fill="white"/>
</svg>
