<svg width="5" height="22" viewBox="0 0 5 22" fill="none" xmlns="http://www.w3.org/2000/svg">
<path fill-rule="evenodd" clip-rule="evenodd" d="M2.45283 0C3.86792 0 5 1.13208 5 2.45283C5 3.86792 3.86792 5 2.45283 5C1.13208 5 0 3.86792 0 2.45283C0 1.13208 1.13208 0 2.45283 0Z" fill="#313131"/>
<path fill-rule="evenodd" clip-rule="evenodd" d="M2.45283 8.35156C3.86792 8.35156 5 9.3893 5 10.8044C5 12.2195 3.86792 13.3516 2.45283 13.3516C1.13208 13.3516 0 12.2195 0 10.8044C0 9.3893 1.13208 8.35156 2.45283 8.35156Z" fill="#313131"/>
<path fill-rule="evenodd" clip-rule="evenodd" d="M2.45283 16.6016C3.86792 16.6016 5 17.7336 5 19.1487C5 20.4695 3.86792 21.6016 2.45283 21.6016C1.13208 21.6016 0 20.4695 0 19.1487C0 17.7336 1.13208 16.6016 2.45283 16.6016Z" fill="#313131"/>
</svg>
