<svg width="12" height="10" viewBox="0 0 12 10" fill="none" xmlns="http://www.w3.org/2000/svg">
<path d="M2.44152 3.31507H0.163397V9.98655H2.44152V3.31507Z" fill="white"/>
<path d="M2.05853 0.201635C1.84141 0.0701661 1.58625 3.99915e-06 1.32524 1.70346e-10C1.15108 -2.66581e-06 0.978641 0.0312427 0.817836 0.0919395C0.65703 0.152636 0.511031 0.241586 0.388237 0.353675C0.265441 0.465763 0.168273 0.598778 0.102319 0.74507C0.0363653 0.891361 0.00292715 1.04804 0.00392807 1.2061C0.00542836 1.44299 0.084195 1.67416 0.230292 1.87046C0.376388 2.06677 0.583269 2.2194 0.824836 2.30911C1.0664 2.39882 1.33183 2.42158 1.58764 2.37454C1.84345 2.32749 2.07817 2.21274 2.2622 2.04475C2.44623 1.87677 2.57132 1.66308 2.62169 1.43064C2.67206 1.19821 2.64546 0.957443 2.54523 0.738716C2.445 0.51999 2.27565 0.333104 2.05853 0.201635Z" fill="white"/>
<path d="M6.09834 3.31473H3.90375L3.89616 10H6.17428V6.69872C6.17428 5.83032 6.35653 4.98949 7.54115 4.98949C8.72578 4.98949 8.72578 5.98884 8.72578 6.76074V9.98622H11.0039V6.32655C11.0039 4.52773 10.5407 3.14932 8.26256 3.14932C7.82837 3.1339 7.39771 3.22577 7.01654 3.41512C6.63538 3.60448 6.31803 3.88422 6.09834 4.22448V3.31473Z" fill="white"/>
</svg>
