<svg width="11" height="9" viewBox="0 0 11 9" fill="none" xmlns="http://www.w3.org/2000/svg">
<path d="M10.8768 1.00421C10.4792 1.18942 9.97571 1.36326 9.5245 1.42105C9.98337 1.13495 10.7113 0.539053 10.8768 0C10.4481 0.264789 9.6728 0.547579 9.16705 0.649895C8.76317 0.199895 8.18711 0 7.54883 0C6.32277 0 5.46768 1.09184 5.46768 2.36842V3.31579C3.66465 3.31579 1.9067 1.87247 0.812711 0.473684C0.6149 0.82624 0.511048 1.22825 0.512056 1.63753C0.512056 2.49916 1.26527 3.37358 1.86162 3.78947C1.49786 3.77763 0.809105 3.48584 0.509351 3.31579V3.34279C0.509351 4.464 1.25806 5.22521 2.27272 5.43742C2.08745 5.49095 1.86162 5.68421 0.992563 5.68421C1.27474 6.60079 2.69327 7.08537 3.66465 7.10526C2.90468 7.72437 1.5497 8.05263 0.509351 8.05263C0.329499 8.05263 0.232135 8.06305 0.0585938 8.04174C1.04034 8.69542 2.41155 9 3.66465 9C7.74717 9 9.97526 5.72305 9.97526 2.66684C9.97526 2.56642 9.97211 2.23011 9.96715 2.13158C10.4035 1.80853 10.5802 1.47032 10.8768 1.00421Z" fill="white"/>
</svg>
