<svg width="24" height="22" viewBox="0 0 24 22" fill="none" xmlns="http://www.w3.org/2000/svg">
<path d="M8.5 7.5L1.5 9L6.5 13.5L5.5 21L12 17.5L19 21.5L17 14L23 8.5L15.5 7.5L12 1L8.5 7.5Z" fill="#F0BB00"/>
<path d="M18.963 21.9975C19.0828 21.9881 19.1991 21.9544 19.3043 21.8985C19.4095 21.8427 19.5012 21.766 19.5732 21.6736C19.6452 21.5812 19.6959 21.4751 19.7219 21.3625C19.748 21.2498 19.7489 21.1331 19.7244 21.0202L18.226 14.0185L23.7231 9.19828C23.8436 9.09286 23.9299 8.95634 23.9717 8.80505C24.0135 8.65376 24.0089 8.4941 23.9587 8.3452C23.9084 8.19631 23.8145 8.06447 23.6882 7.96548C23.562 7.86648 23.4087 7.80452 23.2466 7.787L15.848 6.98949L12.7737 0.480439C12.7066 0.337305 12.5979 0.215813 12.4607 0.13058C12.3234 0.045347 12.1635 0 12 0C11.8365 0 11.6765 0.045347 11.5393 0.13058C11.402 0.215813 11.2934 0.337305 11.2263 0.480439L8.15203 6.98949L0.753355 7.787C0.591349 7.80452 0.438032 7.86648 0.311753 7.96548C0.185475 8.06447 0.0915852 8.19631 0.041322 8.3452C-0.00894122 8.4941 -0.0134486 8.65376 0.0283393 8.80505C0.0701272 8.95634 0.15644 9.09286 0.276947 9.19828L5.77404 14.0185L4.27555 21.0202C4.24278 21.1734 4.25671 21.3325 4.31566 21.4784C4.37461 21.6243 4.4761 21.7508 4.60797 21.8428C4.73985 21.9348 4.89653 21.9883 5.05927 21.997C5.22201 22.0057 5.38392 21.9693 5.52563 21.8919L12 18.3618L18.4743 21.8919C18.6224 21.9735 18.7928 22.0103 18.963 21.9975ZM17.6844 19.5893L12.4194 16.716C12.2916 16.6462 12.1471 16.6095 12 16.6095C11.8529 16.6095 11.7084 16.6462 11.5806 16.716L6.31561 19.5893L7.53309 13.8934C7.56263 13.755 7.55414 13.6115 7.50845 13.4772C7.46276 13.3429 7.38144 13.2222 7.27249 13.1272L2.79745 9.20609L8.81983 8.55714C8.96619 8.54173 9.10585 8.49003 9.22508 8.40709C9.34431 8.32415 9.439 8.21284 9.49984 8.08411L12 2.79086L14.5002 8.08411C14.561 8.21284 14.6557 8.32415 14.7749 8.40709C14.8942 8.49003 15.0338 8.54173 15.1802 8.55714L21.2026 9.20609L16.7275 13.1272C16.6186 13.2222 16.5372 13.3428 16.4915 13.4772C16.4458 13.6115 16.4373 13.755 16.4669 13.8934L17.6844 19.5893Z" fill="#F0BB00"/>
</svg>
